<svg width="79" height="82" viewBox="0 0 79 82" fill="none" xmlns="http://www.w3.org/2000/svg">
<g id="image 2 (Traced)" style="mix-blend-mode:overlay" opacity="0.4">
<path fill-rule="evenodd" clip-rule="evenodd" d="M-0.994995 -53.4294C-1.55899 -52.3754 -2.30101 -48.8344 -2.64301 -45.5614C-3.62001 -36.2174 -4.23297 -36.0334 -10.608 -43.1704C-18.576 -52.0914 -19.443 -51.7254 -18.569 -39.8194C-17.996 -32.0034 -18.109 -30.3674 -19.182 -31.0184C-19.907 -31.4584 -23.157 -33.5284 -26.405 -35.6194C-29.653 -37.7094 -32.915 -39.4204 -33.655 -39.4204C-35.83 -39.4204 -35.211 -35.3694 -31.999 -28.5804C-30.35 -25.0934 -29 -22.0564 -29 -21.8304C-29 -20.9294 -32.816 -21.5454 -38.745 -23.4044C-44.457 -25.1944 -48 -25.2454 -48 -23.5364C-48 -22.4214 -44.888 -18.1814 -40.576 -13.4204L-36.5 -8.92039L-45.204 -8.42039C-58.246 -7.67139 -58.612 -6.0724 -47.387 1.1086C-44.424 3.0036 -42 4.9786 -42 5.4966C-42 6.0136 -44.587 7.1586 -47.75 8.0396C-55.961 10.3276 -58 11.3296 -58 13.0796C-58 14.8296 -55.961 15.8316 -47.75 18.1196C-44.587 19.0006 -42 20.1556 -42 20.6866C-42 21.2176 -44.887 23.4626 -48.416 25.6746C-58.786 32.1766 -58.171 33.8036 -45.051 34.5796L-36.601 35.0796L-41.257 40.3136C-47.175 46.9676 -48.632 49.5706 -47.002 50.5786C-45.797 51.3236 -43.631 50.9536 -34.782 48.4936C-32.187 47.7726 -29.814 47.4326 -29.507 47.7386C-29.201 48.0446 -30.311 51.1716 -31.975 54.6876C-35.209 61.5236 -35.834 65.5796 -33.655 65.5796C-32.915 65.5796 -29.653 63.8686 -26.405 61.7786C-23.157 59.6876 -19.907 57.6176 -19.182 57.1776C-18.109 56.5266 -17.996 58.1626 -18.569 65.9786C-19.443 77.8846 -18.576 78.2506 -10.608 69.3296C-4.23297 62.1926 -3.62001 62.3766 -2.64301 71.7206C-2.30101 74.9936 -1.53003 78.5886 -0.93103 79.7086C0.0919685 81.6206 0.27203 81.6426 2.00403 80.0766C3.01803 79.1576 5.07497 75.5206 6.57397 71.9936C8.07298 68.4656 9.69199 65.5796 10.17 65.5796C10.649 65.5796 12.719 69.0676 14.77 73.3296C16.822 77.5916 18.933 81.0796 19.462 81.0796C21.039 81.0796 22.823 76.4676 23.688 70.1536C24.135 66.8946 24.957 64.0796 25.516 63.8986C26.074 63.7176 28.324 65.8546 30.516 68.6486C38.274 78.5396 40.886 77.7116 39.226 65.8866C38.626 61.6096 38.335 57.9106 38.58 57.6656C39.063 57.1836 43.188 59.2356 49.5 63.0986C51.7 64.4446 53.852 65.5546 54.281 65.5636C56.365 65.6066 55.891 62.0036 52.984 55.6946C51.221 51.8706 49.941 48.3016 50.14 47.7626C50.354 47.1786 52.904 47.5306 56.455 48.6366C69.272 52.6256 70.774 51.0736 63.046 41.8256C60.271 38.5046 58 35.5156 58 35.1836C58 34.8516 61.487 34.5726 65.75 34.5646C78.446 34.5396 79.18 32.1276 68.523 25.4466C64.935 23.1966 62 21.0256 62 20.6216C62 20.2186 65.263 18.9236 69.25 17.7446C73.237 16.5656 77.128 15.1916 77.896 14.6916C80.649 12.8966 78.055 10.8736 70.095 8.60661C65.643 7.3386 62 5.9646 62 5.5526C62 5.14061 64.935 2.96261 68.523 0.712608C79.18 -5.96839 78.446 -8.38039 65.75 -8.4054C61.487 -8.41339 58.004 -8.7584 58.009 -9.17039C58.014 -9.58239 60.264 -12.5444 63.009 -15.7514C70.56 -24.5724 69.749 -26.5394 59.843 -23.4344C52.896 -21.2564 50 -20.9324 50 -22.3304C50 -22.8314 51.35 -26.0934 52.999 -29.5804C54.649 -33.0674 55.999 -36.4974 55.999 -37.2014C56.001 -39.9774 52.872 -39.3934 46.878 -35.4984C39.659 -30.8074 37.523 -30.3504 38.33 -33.6704C38.631 -34.9074 39.187 -38.7254 39.566 -42.1534C40.167 -47.5914 40.027 -48.4724 38.47 -49.0704C37.208 -49.5544 35.963 -48.8994 34.224 -46.8374C27.935 -39.3804 25.722 -37.2984 24.929 -38.0914C24.458 -38.5624 23.779 -41.6414 23.419 -44.9334C22.726 -51.2644 20.601 -55.9104 18.883 -54.8484C18.318 -54.4984 16.338 -50.8844 14.484 -46.8164C12.631 -42.7484 10.72 -39.4204 10.238 -39.4204C9.75597 -39.4204 7.893 -42.7614 6.099 -46.8454C2.635 -54.7264 0.673004 -56.5474 -0.994995 -53.4294ZM5 -45.1234C6.955 -41.1014 9.23399 -37.7854 10.162 -37.6144C11.375 -37.3904 12.847 -39.4904 15.599 -45.3704C17.887 -50.2594 19.663 -52.9644 20.11 -52.2424C20.515 -51.5874 21.158 -48.3214 21.538 -44.9854C22.298 -38.3144 23.43 -35.4244 25.285 -35.4134C25.953 -35.4094 29.095 -38.2224 32.267 -41.6634L38.034 -47.9204L37.388 -38.6704C36.609 -27.5124 37.056 -27.2674 46.71 -33.5574C50.202 -35.8324 53.34 -37.4134 53.684 -37.0704C54.027 -36.7264 52.846 -33.2754 51.06 -29.3994C47.765 -22.2504 47.624 -19.4204 50.563 -19.4204C51.458 -19.4204 55.321 -20.3714 59.148 -21.5344C62.975 -22.6964 66.3 -23.4544 66.536 -23.2174C66.773 -22.9814 64.498 -19.8924 61.482 -16.3544C58.465 -12.8154 56.115 -9.2454 56.26 -8.42039C56.465 -7.24739 58.442 -6.8574 65.331 -6.63039C70.27 -6.4674 73.999 -5.92639 73.82 -5.39939C73.644 -4.88139 70.575 -2.53639 67 -0.189392C63.425 2.15861 60.5 4.7546 60.5 5.57961C60.5 6.5666 63.169 7.95161 68.313 9.63261C72.61 11.0366 76.131 12.6116 76.139 13.1326C76.146 13.6536 73.491 14.8126 70.239 15.7076C62.92 17.7226 59.769 19.3576 60.241 20.8976C60.44 21.5476 63.505 24.0006 67.051 26.3486C70.598 28.6956 73.644 31.0406 73.82 31.5586C73.999 32.0856 70.27 32.6266 65.331 32.7896C58.451 33.0166 56.461 33.4076 56.243 34.5796C56.089 35.4046 58.468 38.9456 61.53 42.4486C64.591 45.9516 66.873 49.0396 66.601 49.3116C66.329 49.5836 62.975 48.8556 59.148 47.6936C55.321 46.5306 51.458 45.5796 50.563 45.5796C47.624 45.5796 47.765 48.4096 51.06 55.5586C52.846 59.4346 54.027 62.8856 53.684 63.2296C53.34 63.5726 50.202 61.9916 46.71 59.7166C37.056 53.4266 36.609 53.6716 37.388 64.8296L38.034 74.0796L32.267 67.8226C29.095 64.3816 25.953 61.5686 25.285 61.5726C23.43 61.5836 22.298 64.4736 21.538 71.1446C21.158 74.4806 20.515 77.7466 20.11 78.4016C19.663 79.1236 17.887 76.4186 15.599 71.5296C12.846 65.6486 11.375 63.5496 10.162 63.7736C9.21599 63.9486 6.81998 67.5266 4.59998 72.0806C1.07497 79.3096 0.626976 79.8386 -0.0510254 77.5796C-0.463024 76.2046 -0.845024 73.4596 -0.900024 71.4786C-1.03302 66.6696 -2.88599 61.5796 -4.50299 61.5796C-5.22199 61.5796 -8.29201 64.3906 -11.325 67.8256C-14.359 71.2616 -17.116 73.7976 -17.452 73.4606C-17.788 73.1246 -17.539 69.6716 -16.897 65.7866C-14.992 54.2496 -16.404 53.2996 -26.121 59.5796C-29.525 61.7796 -32.696 63.5796 -33.168 63.5796C-34.011 63.5796 -33.409 61.9346 -29.012 52.2236C-25.851 45.2446 -26.991 44.5626 -37.259 47.2866C-41.766 48.4826 -45.639 49.2746 -45.866 49.0466C-46.094 48.8196 -43.729 45.6446 -40.611 41.9926C-33.374 33.5146 -33.883 32.5796 -45.745 32.5796C-55.648 32.5796 -55.661 31.9486 -45.874 26.0036C-37.453 20.8876 -37.86 19.3536 -48.5 16.1076C-53.175 14.6816 -57 13.3236 -57 13.0896C-57 12.8556 -53.737 11.6986 -49.75 10.5176C-37.731 6.95861 -37.275 5.47961 -46.419 -0.295395C-49.949 -2.52439 -53.126 -4.81539 -53.478 -5.38439C-53.9 -6.06739 -51.245 -6.42039 -45.681 -6.42039C-33.872 -6.42039 -33.358 -7.3714 -40.572 -15.8754C-43.679 -19.5364 -45.99 -22.7644 -45.707 -23.0464C-45.424 -23.3294 -42.177 -22.6294 -38.491 -21.4904C-27.22 -18.0094 -25.701 -18.7604 -29.053 -26.1584C-33.401 -35.7554 -34.01 -37.4204 -33.168 -37.4204C-32.696 -37.4204 -29.525 -35.6204 -26.121 -33.4204C-16.404 -27.1404 -14.992 -28.0904 -16.897 -39.6274C-17.539 -43.5124 -17.788 -46.9654 -17.452 -47.3014C-17.116 -47.6384 -14.359 -45.1024 -11.325 -41.6664C-8.29201 -38.2314 -5.22199 -35.4204 -4.50299 -35.4204C-2.97799 -35.4204 -1 -40.5154 -1 -44.4444C-1 -48.3774 0.159019 -53.5884 0.882019 -52.9084C1.22202 -52.5884 3.075 -49.0854 5 -45.1234Z" fill="white"/>
</g>
</svg>
