<svg width="137" height="137" viewBox="0 0 137 137" fill="none" xmlns="http://www.w3.org/2000/svg">
<g style="mix-blend-mode:overlay" opacity="0.4">
<path fill-rule="evenodd" clip-rule="evenodd" d="M57.005 1.5706C56.441 2.6246 55.699 6.1656 55.357 9.4386C54.38 18.7826 53.767 18.9666 47.392 11.8296C39.424 2.9086 38.557 3.2746 39.431 15.1806C40.004 22.9966 39.891 24.6326 38.818 23.9816C38.093 23.5416 34.843 21.4716 31.595 19.3806C28.347 17.2906 25.085 15.5796 24.345 15.5796C22.17 15.5796 22.789 19.6306 26.001 26.4196C27.65 29.9066 29 32.9436 29 33.1696C29 34.0706 25.184 33.4546 19.255 31.5956C13.543 29.8056 10 29.7546 10 31.4636C10 32.5786 13.112 36.8186 17.424 41.5796L21.5 46.0796L12.796 46.5796C-0.245979 47.3286 -0.612024 48.9276 10.613 56.1086C13.576 58.0036 16 59.9786 16 60.4966C16 61.0136 13.413 62.1586 10.25 63.0396C2.039 65.3276 0 66.3296 0 68.0796C0 69.8296 2.039 70.8316 10.25 73.1196C13.413 74.0006 16 75.1556 16 75.6866C16 76.2176 13.113 78.4626 9.58398 80.6746C-0.786016 87.1766 -0.171025 88.8036 12.949 89.5796L21.399 90.0796L16.743 95.3136C10.825 101.968 9.36799 104.571 10.998 105.579C12.203 106.324 14.369 105.954 23.218 103.494C25.813 102.773 28.186 102.433 28.493 102.739C28.799 103.045 27.689 106.172 26.025 109.688C22.791 116.524 22.166 120.58 24.345 120.58C25.085 120.58 28.347 118.869 31.595 116.779C34.843 114.688 38.093 112.618 38.818 112.178C39.891 111.527 40.004 113.163 39.431 120.979C38.557 132.885 39.424 133.251 47.392 124.33C53.767 117.193 54.38 117.377 55.357 126.721C55.699 129.994 56.47 133.589 57.069 134.709C58.092 136.621 58.272 136.643 60.004 135.077C61.018 134.158 63.075 130.521 64.574 126.994C66.073 123.466 67.692 120.58 68.17 120.58C68.649 120.58 70.719 124.068 72.77 128.33C74.822 132.592 76.933 136.08 77.462 136.08C79.039 136.08 80.823 131.468 81.688 125.154C82.135 121.895 82.957 119.08 83.516 118.899C84.074 118.718 86.324 120.855 88.516 123.649C96.274 133.54 98.886 132.712 97.226 120.887C96.626 116.61 96.335 112.911 96.58 112.666C97.063 112.184 101.188 114.236 107.5 118.099C109.7 119.445 111.852 120.555 112.281 120.564C114.365 120.607 113.891 117.004 110.984 110.695C109.221 106.871 107.941 103.302 108.14 102.763C108.354 102.179 110.904 102.531 114.455 103.637C127.272 107.626 128.774 106.074 121.046 96.8256C118.271 93.5046 116 90.5156 116 90.1836C116 89.8516 119.487 89.5726 123.75 89.5646C136.446 89.5396 137.18 87.1276 126.523 80.4466C122.935 78.1966 120 76.0256 120 75.6216C120 75.2186 123.263 73.9236 127.25 72.7446C131.237 71.5656 135.128 70.1916 135.896 69.6916C138.649 67.8966 136.055 65.8736 128.095 63.6066C123.643 62.3386 120 60.9646 120 60.5526C120 60.1406 122.935 57.9626 126.523 55.7126C137.18 49.0316 136.446 46.6196 123.75 46.5946C119.487 46.5866 116.004 46.2416 116.009 45.8296C116.014 45.4176 118.264 42.4556 121.009 39.2486C128.56 30.4276 127.749 28.4606 117.843 31.5656C110.896 33.7436 108 34.0676 108 32.6696C108 32.1686 109.35 28.9066 110.999 25.4196C112.649 21.9326 113.999 18.5026 113.999 17.7986C114.001 15.0226 110.872 15.6066 104.878 19.5016C97.659 24.1926 95.523 24.6496 96.33 21.3296C96.631 20.0926 97.187 16.2746 97.566 12.8466C98.167 7.4086 98.027 6.5276 96.47 5.9296C95.208 5.4456 93.963 6.1006 92.224 8.1626C85.935 15.6196 83.722 17.7016 82.929 16.9086C82.458 16.4376 81.779 13.3586 81.419 10.0666C80.726 3.7356 78.601 -0.910398 76.883 0.151602C76.318 0.501602 74.338 4.1156 72.484 8.1836C70.631 12.2516 68.72 15.5796 68.238 15.5796C67.756 15.5796 65.893 12.2386 64.099 8.1546C60.635 0.273604 58.673 -1.5474 57.005 1.5706ZM63 9.8766C64.955 13.8986 67.234 17.2146 68.162 17.3856C69.375 17.6096 70.847 15.5096 73.599 9.6296C75.887 4.7406 77.663 2.0356 78.11 2.7576C78.515 3.4126 79.158 6.6786 79.538 10.0146C80.298 16.6856 81.43 19.5756 83.285 19.5866C83.953 19.5906 87.095 16.7776 90.267 13.3366L96.034 7.0796L95.388 16.3296C94.609 27.4876 95.056 27.7326 104.71 21.4426C108.202 19.1676 111.34 17.5866 111.684 17.9296C112.027 18.2736 110.846 21.7246 109.06 25.6006C105.765 32.7496 105.624 35.5796 108.563 35.5796C109.458 35.5796 113.321 34.6286 117.148 33.4656C120.975 32.3036 124.3 31.5456 124.536 31.7826C124.773 32.0186 122.498 35.1076 119.482 38.6456C116.465 42.1846 114.115 45.7546 114.26 46.5796C114.465 47.7526 116.442 48.1426 123.331 48.3696C128.27 48.5326 131.999 49.0736 131.82 49.6006C131.644 50.1186 128.575 52.4636 125 54.8106C121.425 57.1586 118.5 59.7546 118.5 60.5796C118.5 61.5666 121.169 62.9516 126.313 64.6326C130.61 66.0366 134.131 67.6116 134.139 68.1326C134.146 68.6536 131.491 69.8126 128.239 70.7076C120.92 72.7226 117.769 74.3576 118.241 75.8976C118.44 76.5476 121.505 79.0006 125.051 81.3486C128.598 83.6956 131.644 86.0406 131.82 86.5586C131.999 87.0856 128.27 87.6266 123.331 87.7896C116.451 88.0166 114.461 88.4076 114.243 89.5796C114.089 90.4046 116.468 93.9456 119.53 97.4486C122.591 100.952 124.873 104.04 124.601 104.312C124.329 104.584 120.975 103.856 117.148 102.694C113.321 101.531 109.458 100.58 108.563 100.58C105.624 100.58 105.765 103.41 109.06 110.559C110.846 114.435 112.027 117.886 111.684 118.23C111.34 118.573 108.202 116.992 104.71 114.717C95.056 108.427 94.609 108.672 95.388 119.83L96.034 129.08L90.267 122.823C87.095 119.382 83.953 116.569 83.285 116.573C81.43 116.584 80.298 119.474 79.538 126.145C79.158 129.481 78.515 132.747 78.11 133.402C77.663 134.124 75.887 131.419 73.599 126.53C70.846 120.649 69.375 118.55 68.162 118.774C67.216 118.949 64.82 122.527 62.6 127.081C59.075 134.31 58.627 134.839 57.949 132.58C57.537 131.205 57.155 128.46 57.1 126.479C56.967 121.67 55.114 116.58 53.497 116.58C52.778 116.58 49.708 119.391 46.675 122.826C43.641 126.262 40.884 128.798 40.548 128.461C40.212 128.125 40.461 124.672 41.103 120.787C43.008 109.25 41.596 108.3 31.879 114.58C28.475 116.78 25.304 118.58 24.832 118.58C23.989 118.58 24.591 116.935 28.988 107.224C32.149 100.245 31.009 99.5626 20.741 102.287C16.234 103.483 12.361 104.275 12.134 104.047C11.906 103.82 14.271 100.645 17.389 96.9926C24.626 88.5146 24.117 87.5796 12.255 87.5796C2.35201 87.5796 2.33898 86.9486 12.126 81.0036C20.547 75.8876 20.14 74.3536 9.5 71.1076C4.825 69.6816 1 68.3236 1 68.0896C1 67.8556 4.263 66.6986 8.25 65.5176C20.269 61.9586 20.725 60.4796 11.581 54.7046C8.05099 52.4756 4.87397 50.1846 4.52197 49.6156C4.09997 48.9326 6.75497 48.5796 12.319 48.5796C24.128 48.5796 24.642 47.6286 17.428 39.1246C14.321 35.4636 12.01 32.2356 12.293 31.9536C12.576 31.6706 15.823 32.3706 19.509 33.5096C30.78 36.9906 32.299 36.2396 28.947 28.8416C24.599 19.2446 23.99 17.5796 24.832 17.5796C25.304 17.5796 28.475 19.3796 31.879 21.5796C41.596 27.8596 43.008 26.9096 41.103 15.3726C40.461 11.4876 40.212 8.0346 40.548 7.6986C40.884 7.3616 43.641 9.8976 46.675 13.3336C49.708 16.7686 52.778 19.5796 53.497 19.5796C55.022 19.5796 57 14.4846 57 10.5556C57 6.6226 58.159 1.4116 58.882 2.0916C59.222 2.4116 61.075 5.9146 63 9.8766Z" fill="white"/>
</g>
</svg>
